<svg width="765" height="165" viewBox="0 0 765 165" fill="none" xmlns="http://www.w3.org/2000/svg">
<g filter="url(#filter0_n_54_23)">
<path fill-rule="evenodd" clip-rule="evenodd" d="M0 164.5L62 0H192L130.5 164.5H87L110 102H66L42.5 164.5H0ZM81.5 65.5L97 26H141.5L126.5 65.5H81.5Z" fill="white"/>
<path fill-rule="evenodd" clip-rule="evenodd" d="M154 164.5L213 0H339.5L315.5 65.5L288.5 78L311.5 97L286 164.5H154ZM209.5 128.5L221.5 97H270.5L258 128.5H209.5ZM232.5 64L244 35H286L275 64H232.5Z" fill="white"/>
<path d="M653 0H764.5L751 34.5H715L667 164.5H626.5L675 34.5H639.5L653 0Z" fill="white"/>
<path d="M511 0L452.5 164.5H581L641.5 0H597.5L553.5 127H507L552 0H511Z" fill="white"/>
<path fill-rule="evenodd" clip-rule="evenodd" d="M304.5 164.5L364 0H494.5L432.5 164.5H304.5ZM392.5 35L356 130H404L442 35H392.5Z" fill="white"/>
</g>
<defs>
<filter id="filter0_n_54_23" x="0" y="0" width="764.5" height="164.5" filterUnits="userSpaceOnUse" color-interpolation-filters="sRGB">
<feFlood flood-opacity="0" result="BackgroundImageFix"/>
<feBlend mode="normal" in="SourceGraphic" in2="BackgroundImageFix" result="shape"/>
<feTurbulence type="fractalNoise" baseFrequency="0.5 0.5" stitchTiles="stitch" numOctaves="3" result="noise" seed="8485" />
<feColorMatrix in="noise" type="luminanceToAlpha" result="alphaNoise" />
<feComponentTransfer in="alphaNoise" result="coloredNoise1">
<feFuncA type="discrete" tableValues="1 1 1 1 1 1 1 1 1 1 1 1 1 1 1 1 1 1 1 1 1 1 1 1 1 1 1 1 1 1 1 1 1 1 1 1 1 1 1 1 1 1 1 1 1 1 1 1 1 1 1 0 0 0 0 0 0 0 0 0 0 0 0 0 0 0 0 0 0 0 0 0 0 0 0 0 0 0 0 0 0 0 0 0 0 0 0 0 0 0 0 0 0 0 0 0 0 0 0 0 "/>
</feComponentTransfer>
<feComposite operator="in" in2="shape" in="coloredNoise1" result="noise1Clipped" />
<feFlood flood-color="#002BFF" result="color1Flood" />
<feComposite operator="in" in2="noise1Clipped" in="color1Flood" result="color1" />
<feMerge result="effect1_noise_54_23">
<feMergeNode in="shape" />
<feMergeNode in="color1" />
</feMerge>
</filter>
</defs>
</svg>
